<svg width="512" height="512" viewBox="0 0 512 512" fill="none" xmlns="http://www.w3.org/2000/svg">
<rect width="512" height="512" rx="120" fill="#ED702D"/>
<path d="M113.606 80.4191V235.673H151.131V173.283H212.307V235.673H249.756V80.4191H212.307V142.733H151.131V80.4191H113.606Z" fill="white"/>
<path d="M405.427 235.673V80.4191H367.978V169.872H366.69L305.589 80.4191H273.295V235.673H310.819V146.069H311.805L373.588 235.673H405.427Z" fill="white"/>
<path d="M368.706 276.552H406.155V431.806H374.316L312.533 342.201H311.547V431.806H274.022V276.552H306.316L367.417 366.005H368.706V276.552Z" fill="white"/>
<path d="M208.242 332.801H246.146C245.236 323.502 242.886 315.239 239.095 308.012C235.305 300.785 230.378 294.695 224.313 289.742C218.248 284.739 211.223 280.949 203.238 278.371C195.253 275.743 186.561 274.429 177.161 274.429C163.364 274.429 150.906 277.512 139.787 283.678C128.669 289.843 119.85 298.865 113.331 310.741C106.811 322.618 103.551 337.097 103.551 354.179C103.551 371.21 106.761 385.664 113.179 397.541C119.597 409.417 128.34 418.464 139.408 424.68C150.527 430.846 163.111 433.929 177.161 433.929C187.824 433.929 197.275 432.311 205.513 429.077C213.801 425.842 220.826 421.496 226.587 416.038C232.349 410.529 236.872 404.439 240.157 397.768C243.492 391.097 245.489 384.325 246.146 377.452L208.242 377.224C207.585 380.964 206.397 384.325 204.679 387.307C203.011 390.238 200.863 392.74 198.235 394.812C195.658 396.833 192.651 398.375 189.214 399.436C185.828 400.497 182.063 401.028 177.919 401.028C170.54 401.028 164.147 399.284 158.739 395.797C153.382 392.26 149.213 387.029 146.231 380.105C143.3 373.131 141.834 364.489 141.834 354.179C141.834 344.273 143.275 335.833 146.155 328.859C149.086 321.885 153.256 316.553 158.664 312.864C164.122 309.174 170.616 307.33 178.146 307.33C182.391 307.33 186.257 307.936 189.745 309.149C193.282 310.312 196.34 312.005 198.917 314.228C201.495 316.452 203.567 319.131 205.134 322.264C206.7 325.397 207.736 328.91 208.242 332.801Z" fill="white"/>
</svg>
